<?xml version="1.0" standalone="no"?>
<!DOCTYPE svg PUBLIC "-//W3C//DTD SVG 20010904//EN"
 "http://www.w3.org/TR/2001/REC-SVG-20010904/DTD/svg10.dtd">
<svg version="1.0" xmlns="http://www.w3.org/2000/svg"
 width="256.000000pt" height="256.000000pt" viewBox="0 0 256.000000 256.000000"
 preserveAspectRatio="xMidYMid meet">
<metadata>
Created by potrace 1.14, written by Peter Selinger 2001-2017
</metadata>
<g transform="translate(0.000000,256.000000) scale(0.100000,-0.100000)"
fill="#000000" stroke="none">
<path d="M1250 1935 l0 -625 -625 0 -625 0 0 -30 0 -30 625 0 625 0 0 -625 0
-625 30 0 30 0 0 625 0 625 625 0 625 0 0 30 0 30 -625 0 -625 0 0 625 0 625
-30 0 -30 0 0 -625z"/>
<path d="M1664 785 c-4 -8 -4 -22 0 -30 5 -13 40 -15 258 -13 l253 3 0 25 0
25 -253 3 c-218 2 -253 0 -258 -13z"/>
<path d="M1660 515 l0 -25 260 0 260 0 0 25 0 25 -260 0 -260 0 0 -25z"/>
</g>
</svg>
